<svg id="图层_1" data-name="图层 1" xmlns="http://www.w3.org/2000/svg" xmlns:xlink="http://www.w3.org/1999/xlink" viewBox="0 0 545.14 175.17"><defs><style>.cls-1{fill:url(#未命名的渐变_13);}.cls-2{fill:url(#未命名的渐变_13-2);}.cls-3{font-size:68px;fill:#0071bc;font-family:MicrosoftYaHeiUI, Microsoft YaHei UI;}</style><linearGradient id="未命名的渐变_13" x1="52.96" y1="89.76" x2="170.88" y2="126.1" gradientUnits="userSpaceOnUse"><stop offset="0" stop-color="#00a99d"/><stop offset="1" stop-color="#1b1464"/></linearGradient><linearGradient id="未命名的渐变_13-2" x1="13.83" y1="143.16" x2="131.56" y2="180.12" xlink:href="#未命名的渐变_13"/></defs><path class="cls-1" d="M158.29,173.4H138V161.55h20.3a13.2,13.2,0,0,0,13.19-13.18V126.79a13.21,13.21,0,0,0-13.19-13.18H119.71V75a13.2,13.2,0,0,0-13.18-13.18H85A13.19,13.19,0,0,0,71.77,75V95.67H59.92V75A25.06,25.06,0,0,1,85,50h21.58a25.05,25.05,0,0,1,25,25v26.74h26.74a25,25,0,0,1,25,25v21.58A25.05,25.05,0,0,1,158.29,173.4Z" transform="translate(-8.15 -50)"/><path class="cls-2" d="M106.53,225.17H85a25.06,25.06,0,0,1-25-25V173.4H33.18a25.06,25.06,0,0,1-25-25V126.79a25.05,25.05,0,0,1,25-25H65.85a65.77,65.77,0,0,1,65.7,65.71v32.66A25.05,25.05,0,0,1,106.53,225.17ZM33.18,113.61A13.2,13.2,0,0,0,20,126.79v21.58a13.19,13.19,0,0,0,13.18,13.18H71.77v38.59A13.19,13.19,0,0,0,85,213.32h21.58a13.2,13.2,0,0,0,13.18-13.18V167.48a53.93,53.93,0,0,0-53.86-53.87Z" transform="translate(-8.15 -50)"/><text class="cls-3" transform="translate(196.78 114.67)">医学知识库</text></svg>